<svg xmlns="http://www.w3.org/2000/svg" width="64" height="64" viewBox="0 0 64 64" fill="none">
  <!-- Background -->
  <rect width="64" height="64" fill="#f8f9fa" rx="12"/>
  
  <!-- Document base -->
  <path d="M18 8h24v48H18c-2.2 0-4-1.8-4-4V12c0-2.2 1.8-4 4-4z" fill="#667eea"/>
  
  <!-- Paper fold effect -->
  <path d="M42 8v12h12" fill="#667eea" opacity="0.8"/>
  <polygon points="42,8 54,20 42,20" fill="#764ba2"/>
  
  <!-- Header line -->
  <rect x="22" y="14" width="16" height="2" fill="#ffffff" opacity="0.8" rx="1"/>
  
  <!-- Content lines -->
  <g fill="#ffffff" opacity="0.6">
    <rect x="22" y="22" width="14" height="1.5" rx="0.75"/>
    <rect x="22" y="26" width="18" height="1.5" rx="0.75"/>
    <rect x="22" y="30" width="16" height="1.5" rx="0.75"/>
  </g>
  
  <!-- Accent dots -->
  <circle cx="20" cy="24" r="1.5" fill="#764ba2"/>
  <circle cx="20" cy="28" r="1.5" fill="#764ba2"/>
  <circle cx="20" cy="32" r="1.5" fill="#764ba2"/>
  
  <!-- Bottom accent bar -->
  <rect x="18" y="48" width="26" height="3" fill="#764ba2" rx="1.5"/>
</svg>
